# xmcd
#
# Track frame offsets: 
#        150
#        55541
#        78905
#        106392
#        134737
#        161208
#        186925
#        216062
#        240309
#
# Disc length: 3627 seconds
#
# Revision: 3
# Processed by: cddbd v1.5.2PL0 Copyright (c) Steve Scherf et al.
# Submitted via: ExactAudioCopy v0.95b4
#
DISCID=760e2909
DTITLE=Various Artist - Funkymix 76
DYEAR=2004
DGENRE=Hip-Hop
TTITLE0=D12 Featuring Eminem - My Band , 40oz. (Funkymix)
TTITLE1=Jadakiss Feat. Nate Dogg - Time's Up (Funkymix)
TTITLE2=Petey Pablo - Freek A Leek (Funkymix)
TTITLE3=Beenie Man Feat. Ms. Thing - Dude (Funkymix)
TTITLE4=Mario Winans Featuring P.Diddy and Enya - I Don't Wanna Know (Fu
TTITLE4=nkymix)
TTITLE5=Lil' Flip - Game Over (Funkymix)
TTITLE6=G Unit Feat. Joe - Wanna Get To Know You (Funkymix)
TTITLE7=Outkast - Roses (Funkymix)
TTITLE8=DJ Slide - Mississippi Cha Cha Slide (Funkymix)
EXTD=
EXTT0=
EXTT1=
EXTT2=
EXTT3=
EXTT4=
EXTT5=
EXTT6=
EXTT7=
EXTT8=
PLAYORDER=
